<svg width="70" height="66" viewBox="0 0 70 66" fill="none" xmlns="http://www.w3.org/2000/svg">
<path fill-rule="evenodd" clip-rule="evenodd" d="M29.645 6.40604C30.1637 6.161 30.7644 6.12025 31.3149 6.29276C31.8654 6.46527 32.3207 6.8369 32.5807 7.32592L45.7057 32.0759C45.8581 32.3627 45.9375 32.6791 45.9375 32.9999C45.9375 33.3207 45.8581 33.6371 45.7057 33.9239L32.5807 58.6739C32.4533 58.9182 32.276 59.1363 32.0588 59.3157C31.8416 59.495 31.589 59.6321 31.3154 59.7189C31.0418 59.8058 30.7526 59.8407 30.4646 59.8217C30.1767 59.8027 29.8955 59.7301 29.6374 59.6081C29.3793 59.4862 29.1494 59.3173 28.9608 59.1111C28.7723 58.905 28.6289 58.6657 28.5389 58.4071C28.4489 58.1485 28.4141 57.8756 28.4365 57.6042C28.4589 57.3328 28.5381 57.0683 28.6694 56.8259L41.3 32.9999L28.6694 9.17392C28.4095 8.68489 28.3663 8.11855 28.5492 7.59948C28.7322 7.0804 29.1264 6.65112 29.645 6.40604V6.40604Z" fill="#818181" fill-opacity="0.4"/>
</svg>
