<svg width="110" height="104" viewBox="0 0 110 104" fill="none" xmlns="http://www.w3.org/2000/svg">
<path fill-rule="evenodd" clip-rule="evenodd" d="M63.4151 10.0944C62.6 9.70824 61.6561 9.64403 60.791 9.91586C59.9259 10.1877 59.2104 10.7733 58.802 11.5439L38.1769 50.5439C37.9374 50.9958 37.8127 51.4944 37.8127 51.9999C37.8127 52.5054 37.9374 53.0039 38.1769 53.4559L58.802 92.4559C59.0021 92.8408 59.2808 93.1845 59.622 93.4671C59.9633 93.7497 60.3603 93.9657 60.7903 94.1025C61.2202 94.2394 61.6746 94.2944 62.1271 94.2645C62.5797 94.2345 63.0215 94.1201 63.4271 93.928C63.8327 93.7358 64.194 93.4697 64.4903 93.1449C64.7865 92.82 65.0119 92.443 65.1533 92.0354C65.2947 91.6279 65.3494 91.1979 65.3142 90.7703C65.279 90.3427 65.1546 89.9259 64.9482 89.5439L45.1001 51.9999L64.9482 14.4559C65.3566 13.6853 65.4245 12.7929 65.137 11.9749C64.8495 11.157 64.2301 10.4805 63.4151 10.0944V10.0944Z" fill="#818181" fill-opacity="0.4"/>
</svg>
