<svg width="70" height="70" viewBox="0 0 70 70" fill="none" xmlns="http://www.w3.org/2000/svg">
<circle r="35" transform="matrix(-1 0 0 1 35 35)" fill="#F86FCA"/>
<path fill-rule="evenodd" clip-rule="evenodd" d="M31.4811 20.4942C31.8219 20.3605 32.2167 20.3383 32.5784 20.4324C32.9402 20.5265 33.2394 20.7292 33.4102 20.996L42.0352 34.496C42.1354 34.6524 42.1876 34.825 42.1876 35C42.1876 35.1749 42.1354 35.3475 42.0352 35.504L33.4102 49.004C33.3266 49.1372 33.21 49.2562 33.0673 49.354C32.9246 49.4518 32.7586 49.5266 32.5788 49.574C32.399 49.6213 32.209 49.6404 32.0197 49.63C31.8305 49.6196 31.6457 49.58 31.4761 49.5135C31.3065 49.447 31.1554 49.3549 31.0315 49.2424C30.9076 49.13 30.8134 48.9995 30.7542 48.8584C30.6951 48.7173 30.6722 48.5685 30.6869 48.4205C30.7017 48.2725 30.7537 48.1282 30.84 47.996L39.1401 35L30.84 22.004C30.6692 21.7372 30.6408 21.4283 30.761 21.1452C30.8813 20.862 31.1403 20.6279 31.4811 20.4942Z" fill="white"/>
</svg>
