<svg width="64" height="60" viewBox="0 0 64 60" fill="none" xmlns="http://www.w3.org/2000/svg">
<path fill-rule="evenodd" clip-rule="evenodd" d="M27.104 5.82368C27.5783 5.60091 28.1274 5.56387 28.6308 5.72069C29.1341 5.87752 29.5504 6.21537 29.788 6.65993L41.7881 29.1599C41.9274 29.4207 42 29.7083 42 29.9999C42 30.2916 41.9274 30.5792 41.7881 30.8399L29.788 53.3399C29.6716 53.562 29.5095 53.7603 29.3109 53.9233C29.1124 54.0864 28.8814 54.211 28.6312 54.2899C28.3811 54.3689 28.1167 54.4006 27.8534 54.3833C27.5901 54.3661 27.3331 54.3001 27.0971 54.1892C26.8611 54.0784 26.6509 53.9248 26.4785 53.7374C26.3061 53.55 26.175 53.3325 26.0927 53.0974C26.0105 52.8622 25.9787 52.6142 25.9991 52.3675C26.0196 52.1208 26.092 51.8803 26.212 51.6599L37.76 29.9999L26.212 8.33993C25.9744 7.89535 25.9349 7.3805 26.1022 6.90862C26.2695 6.43673 26.6298 6.04647 27.104 5.82368V5.82368Z" fill="#818181" fill-opacity="0.4"/>
</svg>
