<svg width="70" height="66" viewBox="0 0 70 66" fill="none" xmlns="http://www.w3.org/2000/svg">
<path fill-rule="evenodd" clip-rule="evenodd" d="M40.355 6.40604C39.8363 6.161 39.2356 6.12025 38.6851 6.29276C38.1346 6.46527 37.6793 6.8369 37.4193 7.32592L24.2943 32.0759C24.1419 32.3627 24.0625 32.6791 24.0625 32.9999C24.0625 33.3207 24.1419 33.6371 24.2943 33.9239L37.4193 58.6739C37.5467 58.9182 37.724 59.1363 37.9412 59.3157C38.1584 59.495 38.411 59.6321 38.6846 59.7189C38.9582 59.8058 39.2474 59.8407 39.5354 59.8217C39.8233 59.8027 40.1045 59.7301 40.3626 59.6081C40.6207 59.4862 40.8506 59.3173 41.0392 59.1111C41.2277 58.905 41.3711 58.6657 41.4611 58.4071C41.5511 58.1485 41.5859 57.8756 41.5635 57.6042C41.5411 57.3328 41.4619 57.0683 41.3306 56.8259L28.7 32.9999L41.3306 9.17392C41.5905 8.68489 41.6337 8.11855 41.4508 7.59948C41.2678 7.0804 40.8736 6.65112 40.355 6.40604V6.40604Z" fill="#818181" fill-opacity="0.4"/>
</svg>
