<svg width="70" height="70" viewBox="0 0 70 70" fill="none" xmlns="http://www.w3.org/2000/svg">
<circle cx="35" cy="35" r="35" fill="#F86FCA"/>
<path fill-rule="evenodd" clip-rule="evenodd" d="M38.5189 20.4942C38.1781 20.3605 37.7833 20.3383 37.4216 20.4324C37.0598 20.5265 36.7606 20.7292 36.5898 20.996L27.9648 34.496C27.8646 34.6524 27.8124 34.825 27.8124 35C27.8124 35.1749 27.8646 35.3475 27.9648 35.504L36.5898 49.004C36.6734 49.1372 36.79 49.2562 36.9327 49.354C37.0754 49.4518 37.2414 49.5266 37.4212 49.574C37.601 49.6213 37.791 49.6404 37.9803 49.63C38.1695 49.6196 38.3543 49.58 38.5239 49.5135C38.6935 49.447 38.8446 49.3549 38.9685 49.2424C39.0924 49.13 39.1866 48.9995 39.2458 48.8584C39.3049 48.7173 39.3278 48.5685 39.3131 48.4205C39.2983 48.2725 39.2463 48.1282 39.16 47.996L30.8599 35L39.16 22.004C39.3308 21.7372 39.3592 21.4283 39.239 21.1452C39.1187 20.862 38.8597 20.6279 38.5189 20.4942Z" fill="white"/>
</svg>
