<svg width="64" height="60" viewBox="0 0 64 60" fill="none" xmlns="http://www.w3.org/2000/svg">
<path fill-rule="evenodd" clip-rule="evenodd" d="M36.896 5.82368C36.4217 5.60091 35.8726 5.56387 35.3692 5.72069C34.8659 5.87752 34.4496 6.21537 34.212 6.65993L22.2119 29.1599C22.0726 29.4207 22 29.7083 22 29.9999C22 30.2916 22.0726 30.5792 22.2119 30.8399L34.212 53.3399C34.3284 53.562 34.4905 53.7603 34.6891 53.9233C34.8876 54.0864 35.1186 54.211 35.3688 54.2899C35.6189 54.3689 35.8833 54.4006 36.1466 54.3833C36.4099 54.3661 36.6669 54.3001 36.9029 54.1892C37.1389 54.0784 37.3491 53.9248 37.5215 53.7374C37.6939 53.55 37.825 53.3325 37.9073 53.0974C37.9895 52.8622 38.0213 52.6142 38.0009 52.3675C37.9804 52.1208 37.908 51.8803 37.788 51.6599L26.24 29.9999L37.788 8.33993C38.0256 7.89535 38.0651 7.3805 37.8978 6.90862C37.7305 6.43673 37.3702 6.04647 36.896 5.82368V5.82368Z" fill="#818181" fill-opacity="0.4"/>
</svg>
