<svg width="110" height="104" viewBox="0 0 110 104" fill="none" xmlns="http://www.w3.org/2000/svg">
<path fill-rule="evenodd" clip-rule="evenodd" d="M46.5849 10.0944C47.4 9.70824 48.3439 9.64403 49.209 9.91586C50.0741 10.1877 50.7896 10.7733 51.198 11.5439L71.8231 50.5439C72.0626 50.9958 72.1873 51.4944 72.1873 51.9999C72.1873 52.5054 72.0626 53.0039 71.8231 53.4559L51.198 92.4559C50.9979 92.8408 50.7192 93.1845 50.378 93.4671C50.0367 93.7497 49.6397 93.9657 49.2097 94.1025C48.7798 94.2394 48.3254 94.2944 47.8729 94.2645C47.4203 94.2345 46.9785 94.1201 46.5729 93.928C46.1673 93.7358 45.806 93.4697 45.5097 93.1449C45.2135 92.82 44.9881 92.443 44.8467 92.0354C44.7053 91.6279 44.6506 91.1979 44.6858 90.7703C44.721 90.3427 44.8454 89.9259 45.0518 89.5439L64.8999 51.9999L45.0518 14.4559C44.6434 13.6853 44.5755 12.7929 44.863 11.9749C45.1505 11.157 45.7699 10.4805 46.5849 10.0944V10.0944Z" fill="#818181" fill-opacity="0.4"/>
</svg>
