<svg width="22" height="22" viewBox="0 0 22 22" fill="none" xmlns="http://www.w3.org/2000/svg">
<path d="M15.8114 22.0001C15.1012 22.0001 14.3971 21.8746 13.7085 21.6244C10.6751 20.5225 7.8595 18.7277 5.56591 16.4342C3.27232 14.1406 1.47758 11.3249 0.375686 8.29155C0.0215937 7.31671 -0.0829025 6.31042 0.0652054 5.30052C0.203946 4.35455 0.570371 3.43622 1.12491 2.64476C1.68189 1.84982 2.42445 1.18864 3.27228 0.73272C4.17639 0.246546 5.16322 0 6.20543 0C6.52958 0 6.80972 0.22648 6.87765 0.543406L7.95673 5.57912C8.00559 5.80714 7.93551 6.04441 7.77064 6.20932L5.92679 8.05313C7.66619 11.5114 10.4886 14.3338 13.9469 16.0732L15.7907 14.2294C15.9556 14.0645 16.1929 13.9945 16.4209 14.0433L21.4566 15.1223C21.7736 15.1903 22 15.4704 22 15.7946C22 16.8368 21.7535 17.8237 21.2672 18.7278C20.8113 19.5756 20.1501 20.3182 19.3552 20.8751C18.5638 21.4297 17.6454 21.7961 16.6994 21.9348C16.403 21.9784 16.1066 22.0001 15.8114 22.0001V22.0001ZM5.65614 1.40503C4.2814 1.55679 3.06122 2.27735 2.25095 3.43381C1.33978 4.73421 1.12731 6.33366 1.66801 7.82213C3.78647 13.6539 8.34619 18.2136 14.178 20.3321C15.6664 20.8728 17.2658 20.6603 18.5663 19.7491C19.7227 18.9389 20.4433 17.7187 20.5951 16.3439L16.4985 15.4661L14.5729 17.3917C14.368 17.5967 14.0567 17.6511 13.7945 17.5279C9.70442 15.6064 6.39371 12.2957 4.47222 8.20562C4.34903 7.94339 4.40343 7.63205 4.60834 7.42718L6.53396 5.50156L5.65614 1.40503Z" fill="black"/>
</svg>
