<svg width="22" height="16" viewBox="0 0 22 16" fill="none" xmlns="http://www.w3.org/2000/svg">
<path d="M19.159 0H1.84615C0.829456 0 0 0.828554 0 1.84615V14.1538C0 15.168 0.825764 16 1.84615 16H19.159C20.1731 16 21.0051 15.1742 21.0051 14.1538V1.84615C21.0051 0.832 20.1794 0 19.159 0ZM18.904 1.23077L10.5417 9.59315L2.10704 1.23077H18.904ZM1.23077 13.899V2.09514L7.15811 7.97165L1.23077 13.899ZM2.10105 14.7692L8.03212 8.83815L10.1104 10.8985C10.3509 11.1371 10.7392 11.1363 10.9787 10.8967L13.0051 8.87028L18.9041 14.7692H2.10105ZM19.7744 13.899L13.8754 8L19.7744 2.10101V13.899Z" fill="black"/>
</svg>
