<svg width="19" height="25" viewBox="0 0 19 25" fill="none" xmlns="http://www.w3.org/2000/svg">
<path d="M9.44791 0C4.23831 0 0 4.2383 0 9.44791C0 12.3779 1.51606 15.781 4.50609 19.5625C6.69397 22.3295 8.85035 24.2418 8.94107 24.3219C9.23064 24.5774 9.66513 24.5774 9.95475 24.3219C10.0455 24.2418 12.2019 22.3295 14.3897 19.5625C17.3798 15.781 18.8958 12.3779 18.8958 9.44791C18.8958 4.2383 14.6575 0 9.44791 0V0ZM9.44791 22.7024C7.62735 20.9674 1.5321 14.7606 1.5321 9.44791C1.5321 5.08311 5.08311 1.5321 9.44791 1.5321C13.8127 1.5321 17.3637 5.08311 17.3637 9.44791C17.3637 14.7606 11.2684 20.9675 9.44791 22.7024V22.7024Z" fill="black"/>
<path d="M9.48869 4.74414C6.87253 4.74414 4.74414 6.87253 4.74414 9.48869C4.74414 10.9601 5.50547 12.669 7.00701 14.568C8.10572 15.9576 9.18861 16.9179 9.23417 16.9581C9.37958 17.0864 9.59778 17.0864 9.74321 16.9581C9.78878 16.9179 10.8717 15.9576 11.9704 14.568C13.4719 12.669 14.2332 10.9601 14.2332 9.48869C14.2332 6.87253 12.1048 4.74414 9.48869 4.74414V4.74414ZM9.48869 16.1448C8.57444 15.2735 5.51353 12.1566 5.51353 9.48869C5.51353 7.29678 7.29678 5.51353 9.48869 5.51353C11.6806 5.51353 13.4639 7.29678 13.4639 9.48869C13.4639 12.1566 10.4029 15.2736 9.48869 16.1448V16.1448Z" fill="black"/>
</svg>
