<svg width="177" height="104" viewBox="0 0 177 104" fill="none" xmlns="http://www.w3.org/2000/svg">
<g clip-path="url(#clip0)">
<path d="M46.0693 47.3878C47.7808 47.3878 49.1621 47.5538 50.2128 47.8852C51.2937 48.1868 52.3445 48.6236 53.3655 49.1965C53.6956 49.3774 53.9812 49.528 54.2212 49.6487C54.4914 49.7694 54.7166 49.8296 54.8968 49.8296C55.167 49.8296 55.3773 49.679 55.5273 49.3774C55.6773 49.046 55.7976 48.5332 55.8876 47.84H56.9235C56.7735 50.0105 56.6983 53.688 56.6983 58.8731H55.6624C55.5422 57.1548 55.1522 55.5121 54.4914 53.9444C53.8307 52.3767 52.93 51.0957 51.7892 50.1009C50.6483 49.1061 49.3269 48.6087 47.8258 48.6087C46.4445 48.6087 45.3338 48.9854 44.4929 49.7392C43.6522 50.4626 43.2318 51.4877 43.2318 52.8139C43.2318 53.839 43.457 54.728 43.9074 55.4818C44.3578 56.2355 45.0183 56.9739 45.8892 57.6974C46.7597 58.3906 48.1861 59.4306 50.1678 60.8174C50.3479 60.9078 50.5132 61.0132 50.6632 61.1339C50.8434 61.2547 51.0086 61.3749 51.1586 61.4957C52.8102 62.641 54.1311 63.6661 55.122 64.5705C56.1128 65.4445 56.9086 66.4696 57.509 67.6452C58.1395 68.8209 58.4548 70.1774 58.4548 71.7148C58.4548 73.6741 57.8995 75.3322 56.7884 76.6887C55.7075 78.0149 54.2361 79.0097 52.3747 79.6731C50.5132 80.3364 48.4563 80.6678 46.2044 80.6678C44.3728 80.6678 42.8415 80.5173 41.6104 80.2157C40.4095 79.9141 39.2835 79.5071 38.2326 78.9948C37.572 78.5729 37.0616 78.3618 36.7013 78.3618C36.431 78.3618 36.2209 78.5277 36.0707 78.8591C35.9206 79.1607 35.8005 79.6581 35.7104 80.3513H34.6746C34.7947 78.3016 34.8547 73.9305 34.8547 67.2383H35.8906C36.1008 70.8254 36.8514 73.7347 38.1425 75.9652C39.4336 78.1958 41.4153 79.3113 44.0875 79.3113C45.7392 79.3113 47.0453 78.9193 48.0059 78.1357C48.9968 77.3521 49.4922 76.2668 49.4922 74.88C49.4922 73.1618 48.9517 71.6999 47.8708 70.4939C46.8201 69.2581 45.1685 67.8862 42.9165 66.3792C41.115 65.1732 39.6738 64.1183 38.5929 63.2139C37.512 62.3096 36.6262 61.2696 35.9356 60.0939C35.2451 58.888 34.8998 57.5016 34.8998 55.9339C34.8998 54.0348 35.4102 52.4522 36.431 51.1861C37.4519 49.8897 38.8031 48.9402 40.4845 48.3374C42.1959 47.7044 44.0575 47.3878 46.0693 47.3878ZM67.3399 44.6748C68.9014 44.6748 70.1021 45.0064 70.943 45.6696C71.8136 46.3329 72.2491 47.2974 72.2491 48.5635C72.2491 49.8296 71.8136 50.7941 70.943 51.4574C70.1021 52.1208 68.9014 52.4522 67.3399 52.4522C65.7487 52.4522 64.5327 52.1208 63.6918 51.4574C62.851 50.7941 62.4308 49.8296 62.4308 48.5635C62.4308 47.2974 62.851 46.3329 63.6918 45.6696C64.5327 45.0064 65.7487 44.6748 67.3399 44.6748ZM71.6636 75.8296C71.6636 77.0654 71.8437 77.9245 72.2041 78.407C72.5945 78.8591 73.2548 79.0852 74.1857 79.0852V80.0348C70.943 79.9141 68.8113 79.8539 67.7903 79.8539C66.7693 79.8539 64.5174 79.9141 61.0346 80.0348V79.0852C61.9655 79.0852 62.6109 78.8591 62.9712 78.407C63.3617 77.9245 63.5567 77.0654 63.5567 75.8296V61.4957C63.5567 60.1089 63.3617 59.0992 62.9712 58.4661C62.6109 57.8331 61.9655 57.5165 61.0346 57.5165V56.567C61.9953 56.6574 62.9262 56.7026 63.827 56.7026C66.9495 56.7026 69.5617 56.4915 71.6636 56.0696V75.8296ZM117.156 48.9252C116.195 48.9854 115.489 49.1061 115.039 49.287C114.618 49.4678 114.333 49.8147 114.183 50.327C114.033 50.8393 113.958 51.6686 113.958 52.8139V75.2418C113.958 76.3871 114.033 77.2164 114.183 77.7287C114.363 78.241 114.663 78.5878 115.084 78.7687C115.504 78.9496 116.195 79.0703 117.156 79.1305V80.0348C115.324 79.9444 112.667 79.8991 109.184 79.8991C105.551 79.8991 102.879 79.9444 101.167 80.0348V79.1305C102.248 79.0703 103.029 78.9496 103.509 78.7687C104.019 78.5878 104.365 78.241 104.545 77.7287C104.725 77.2164 104.815 76.3871 104.815 75.2418V52.1357L93.9611 79.9896H93.2405L80.5397 50.96V71.1722C80.5397 73.4028 80.6298 75.0157 80.8099 76.0105C80.9901 76.9749 81.3801 77.6835 81.9809 78.1357C82.6115 78.5878 83.6474 78.9193 85.0886 79.1305V80.0348C83.8572 79.9444 82.176 79.8991 80.0443 79.8991C78.4526 79.8991 77.2069 79.9444 76.3061 80.0348V79.1305C77.2366 78.9193 77.9275 78.6028 78.3779 78.1809C78.8283 77.7287 79.1282 77.0504 79.2786 76.1461C79.4286 75.2418 79.5038 73.8852 79.5038 72.0765V52.8139C79.5038 51.6686 79.4138 50.8393 79.2336 50.327C79.0832 49.8147 78.7981 49.4678 78.3779 49.287C77.9572 49.1061 77.2668 48.9854 76.3061 48.9252V48.0209C77.2069 48.1113 78.4526 48.1565 80.0443 48.1565C83.6474 48.1565 86.755 48.1113 89.3672 48.0209L97.8794 67.2383L105.266 48.1565H109.184C112.667 48.1565 115.324 48.1113 117.156 48.0209V48.9252Z" fill="#D33B7C"/>
<path d="M6.48034 18.6922C5.14698 17.247 3.4962 15.9386 1.5177 15.2026C0.595721 14.8588 -0.000244141 13.9973 -0.000244141 13.0076C-0.000244141 12.0178 0.595721 11.1563 1.5177 10.8125C6.44755 8.97678 9.34806 3.59608 10.3657 1.36726C10.7452 0.536857 11.5784 0 12.4883 0C13.3973 0 14.2305 0.536857 14.61 1.36726C15.2559 2.78127 16.6609 5.4647 18.8611 7.70649C18.8964 7.69094 18.9318 7.67362 18.9672 7.65888C25.1002 4.99711 33.084 5.12354 40.873 8.00438C41.1179 8.09445 41.3637 8.18277 41.6112 8.2685C49.8012 11.1069 58.8219 11.1069 67.0108 8.26936C67.2585 8.18277 67.5053 8.09445 67.7499 8.00438C75.5383 5.12354 83.5227 4.99797 89.6551 7.65888C94.5899 9.80024 98.6956 13.3626 101.857 18.2463C104.61 22.5004 106.602 27.7781 107.618 33.5086C107.779 34.4195 107.174 35.2889 106.267 35.4508C105.36 35.6127 104.494 35.0058 104.333 34.0948C103.156 27.4525 99.513 15.5853 88.3309 10.7328C82.9768 8.40962 75.8959 8.56028 68.9033 11.1467C68.6376 11.2454 68.3691 11.3407 68.0993 11.4351C59.2084 14.5168 49.4139 14.5168 40.5219 11.4351C40.2529 11.3416 39.9846 11.2454 39.719 11.1476C33.4273 8.82006 27.064 8.46592 21.9513 10.1102C22.4308 10.3787 22.9319 10.6168 23.458 10.8125C24.38 11.1563 24.9751 12.0178 24.976 13.0076C24.976 13.9973 24.38 14.8588 23.458 15.2026C18.5281 17.0383 15.6277 22.419 14.61 24.6479C14.2305 25.4782 13.3982 26.0151 12.4883 26.0151C11.5784 26.0151 10.7452 25.4782 10.3657 24.6479C10.0208 23.8911 9.45759 22.7706 8.67185 21.5497C7.49978 23.6062 6.62266 25.6687 5.97839 27.5321C3.51949 34.6473 2.89247 43.108 4.2569 50.7461C5.55836 58.0311 8.3864 65.5367 13.1584 74.3645C14.0701 76.0493 15.0058 77.7251 15.9106 79.3443C16.4393 80.2916 16.9662 81.2326 17.4854 82.1731C17.9322 82.9816 17.6415 84.0017 16.836 84.4503C16.5798 84.5931 16.3021 84.661 16.0287 84.661C15.4423 84.661 14.873 84.3499 14.5686 83.7982C14.0511 82.8622 13.5276 81.9253 13.0006 80.9825C12.0907 79.3529 11.1489 77.6685 10.2269 75.962C5.2798 66.81 2.33877 58.9861 0.972618 51.3376C-0.489263 43.1521 0.186049 34.0749 2.82606 26.4351C3.80841 23.5923 5.03484 21.0067 6.48034 18.6922ZM12.4883 21.4293C14.0011 18.6489 16.5169 15.1143 20.2643 13.0076C16.5169 10.9 14.0011 7.36532 12.4883 4.58495C10.9747 7.36532 8.45882 10.9 4.71142 13.0076C8.45882 15.1143 10.9747 18.6498 12.4883 21.4293Z" fill="url(#paint0_linear)"/>
<path d="M35.0873 32.113C35.4805 32.9313 36.2861 33.4396 37.19 33.4396C38.0938 33.4396 38.8994 32.9313 39.2927 32.113C40.1439 30.3414 42.0233 27.1756 45.0342 25.8854C45.8974 25.5157 46.4554 24.6688 46.4554 23.7284C46.4554 22.7881 45.8974 21.9412 45.0342 21.5715C42.0224 20.2813 40.1439 17.1155 39.2927 15.3439C38.8994 14.5256 38.0938 14.0173 37.19 14.0173C36.2861 14.0173 35.4805 14.5256 35.0873 15.3439C34.2351 17.1155 32.3567 20.2813 29.3458 21.5715C28.4816 21.9412 27.9236 22.7881 27.9236 23.7284C27.9236 24.6688 28.4816 25.5157 29.3449 25.8854C32.3567 27.1756 34.2351 30.3414 35.0873 32.113ZM37.19 18.4776C38.2258 20.2137 39.805 22.2876 42.0077 23.7284C39.8041 25.1693 38.2258 27.2423 37.19 28.9784C36.1541 27.2431 34.575 25.1693 32.3713 23.7284C34.575 22.2876 36.1541 20.2137 37.19 18.4776Z" fill="#284BC5"/>
<path d="M39.1669 100.12C38.0425 100.12 37.0231 99.8776 36.1089 99.3924C35.2051 98.8964 34.4905 98.2159 33.965 97.3509C33.4501 96.475 33.1926 95.4888 33.1926 94.3914C33.1926 93.294 33.4501 92.3128 33.965 91.4477C34.4905 90.5719 35.2051 89.8914 36.1089 89.4062C37.0231 88.9101 38.0477 88.6624 39.1827 88.6624C40.139 88.6624 41.0008 88.831 41.7679 89.1688C42.5456 89.5066 43.1971 89.9917 43.7226 90.6248L42.0832 92.1441C41.337 91.2791 40.4122 90.8464 39.3088 90.8464C38.6257 90.8464 38.0162 90.9992 37.4803 91.3053C36.9443 91.6006 36.524 92.0175 36.2192 92.5556C35.925 93.0937 35.7778 93.7054 35.7778 94.3914C35.7778 95.0773 35.925 95.6891 36.2192 96.2272C36.524 96.7653 36.9443 97.1872 37.4803 97.4933C38.0162 97.7886 38.6257 97.9364 39.3088 97.9364C40.4122 97.9364 41.337 97.4987 42.0832 96.6229L43.7226 98.1422C43.1971 98.7856 42.5456 99.2762 41.7679 99.614C40.9902 99.9518 40.1232 100.12 39.1669 100.12ZM53.7125 90.9413H50.1815V99.9305H47.6593V90.9413H44.1442V88.8523H53.7125V90.9413ZM60.4272 100.12C59.2814 100.12 58.2465 99.8726 57.3218 99.3766C56.4076 98.8806 55.6874 98.2001 55.1622 97.335C54.647 96.4592 54.3898 95.478 54.3898 94.3914C54.3898 93.3048 54.647 92.3286 55.1622 91.4636C55.6874 90.5877 56.4076 89.9022 57.3218 89.4062C58.2465 88.9101 59.2814 88.6624 60.4272 88.6624C61.5725 88.6624 62.6026 88.9101 63.5168 89.4062C64.4311 89.9022 65.1508 90.5877 65.6764 91.4636C66.2016 92.3286 66.4646 93.3048 66.4646 94.3914C66.4646 95.478 66.2016 96.4592 65.6764 97.335C65.1508 98.2001 64.4311 98.8806 63.5168 99.3766C62.6026 99.8726 61.5725 100.12 60.4272 100.12ZM60.4272 97.9364C61.0785 97.9364 61.6671 97.7886 62.1927 97.4933C62.7178 97.1872 63.1277 96.7653 63.4222 96.2272C63.7267 95.6891 63.8794 95.0773 63.8794 94.3914C63.8794 93.7054 63.7267 93.0937 63.4222 92.5556C63.1277 92.0175 62.7178 91.6006 62.1927 91.3053C61.6671 90.9992 61.0785 90.8464 60.4272 90.8464C59.7755 90.8464 59.1869 90.9992 58.6617 91.3053C58.1361 91.6006 57.7209 92.0175 57.4164 92.5556C57.1219 93.0937 56.975 93.7054 56.975 94.3914C56.975 95.0773 57.1219 95.6891 57.4164 96.2272C57.7209 96.7653 58.1361 97.1872 58.6617 97.4933C59.1869 97.7886 59.7755 97.9364 60.4272 97.9364ZM78.4726 99.9305L78.4569 93.2994L75.2096 98.7594H74.0747L70.8274 93.426V99.9305H68.4314V88.8523H70.5437L74.6737 95.7366L78.7406 88.8523H80.8529L80.8687 99.9305H78.4726ZM91.082 97.5566H85.9589L84.9816 99.9305H82.3648L87.283 88.8523H89.8051L94.7391 99.9305H92.0593L91.082 97.5566ZM90.2781 95.61L88.5283 91.3686L86.7786 95.61H90.2781ZM104.081 90.9413H100.55V99.9305H98.0282V90.9413H94.513V88.8523H104.081V90.9413ZM110.796 100.12C109.65 100.12 108.615 99.8726 107.691 99.3766C106.776 98.8806 106.056 98.2001 105.531 97.335C105.016 96.4592 104.759 95.478 104.759 94.3914C104.759 93.3048 105.016 92.3286 105.531 91.4636C106.056 90.5877 106.776 89.9022 107.691 89.4062C108.615 88.9101 109.65 88.6624 110.796 88.6624C111.941 88.6624 112.971 88.9101 113.886 89.4062C114.8 89.9022 115.52 90.5877 116.045 91.4636C116.57 92.3286 116.833 93.3048 116.833 94.3914C116.833 95.478 116.57 96.4592 116.045 97.335C115.52 98.2001 114.8 98.8806 113.886 99.3766C112.971 99.8726 111.941 100.12 110.796 100.12ZM110.796 97.9364C111.447 97.9364 112.036 97.7886 112.562 97.4933C113.087 97.1872 113.497 96.7653 113.791 96.2272C114.096 95.6891 114.248 95.0773 114.248 94.3914C114.248 93.7054 114.096 93.0937 113.791 92.5556C113.497 92.0175 113.087 91.6006 112.562 91.3053C112.036 90.9992 111.447 90.8464 110.796 90.8464C110.144 90.8464 109.556 90.9992 109.031 91.3053C108.505 91.6006 108.09 92.0175 107.785 92.5556C107.491 93.0937 107.344 93.7054 107.344 94.3914C107.344 95.0773 107.491 95.6891 107.785 96.2272C108.09 96.7653 108.505 97.1872 109.031 97.4933C109.556 97.7886 110.144 97.9364 110.796 97.9364ZM128.329 88.8523V99.9305H125.807V90.9413H122.024L121.945 93.2519C121.892 94.8241 121.766 96.1006 121.567 97.0818C121.367 98.0526 121.031 98.8014 120.558 99.3291C120.095 99.846 119.443 100.105 118.603 100.105C118.256 100.105 117.836 100.047 117.342 99.9305L117.5 97.7624C117.636 97.8044 117.788 97.8257 117.957 97.8257C118.566 97.8257 118.992 97.4671 119.234 96.7495C119.475 96.0215 119.628 94.8874 119.691 93.3469L119.848 88.8523H128.329ZM136.35 100.12C135.204 100.12 134.169 99.8726 133.244 99.3766C132.33 98.8806 131.61 98.2001 131.085 97.335C130.57 96.4592 130.312 95.478 130.312 94.3914C130.312 93.3048 130.57 92.3286 131.085 91.4636C131.61 90.5877 132.33 89.9022 133.244 89.4062C134.169 88.9101 135.204 88.6624 136.35 88.6624C137.495 88.6624 138.525 88.9101 139.439 89.4062C140.354 89.9022 141.073 90.5877 141.599 91.4636C142.124 92.3286 142.387 93.3048 142.387 94.3914C142.387 95.478 142.124 96.4592 141.599 97.335C141.073 98.2001 140.354 98.8806 139.439 99.3766C138.525 99.8726 137.495 100.12 136.35 100.12ZM136.35 97.9364C137.001 97.9364 137.59 97.7886 138.115 97.4933C138.64 97.1872 139.05 96.7653 139.345 96.2272C139.649 95.6891 139.802 95.0773 139.802 94.3914C139.802 93.7054 139.649 93.0937 139.345 92.5556C139.05 92.0175 138.64 91.6006 138.115 91.3053C137.59 90.9992 137.001 90.8464 136.35 90.8464C135.698 90.8464 135.109 90.9992 134.584 91.3053C134.059 91.6006 133.644 92.0175 133.339 92.5556C133.044 93.0937 132.898 93.7054 132.898 94.3914C132.898 95.0773 133.044 95.6891 133.339 96.2272C133.644 96.7653 134.059 97.1872 134.584 97.4933C135.109 97.7886 135.698 97.9364 136.35 97.9364ZM152.126 90.9413H146.877L146.892 99.9305H144.354V88.8523H152.142L152.126 90.9413ZM153.699 88.8523H156.236V96.069L161.501 88.8523H163.897V99.9305H161.375V92.7297L156.11 99.9305H153.699V88.8523ZM175.456 88.8523V99.9305H172.934V96.9869H170.601L168.647 99.9305H165.951L168.253 96.5912C167.506 96.2851 166.934 95.8261 166.534 95.2144C166.135 94.5917 165.935 93.8479 165.935 92.9829C165.935 92.1283 166.13 91.3948 166.519 90.7831C166.907 90.1604 167.459 89.6856 168.174 89.3587C168.889 89.0209 169.729 88.8523 170.696 88.8523H175.456ZM170.759 90.9413C170.034 90.9413 169.477 91.11 169.088 91.4477C168.71 91.7855 168.521 92.2865 168.521 92.9512C168.521 93.5947 168.704 94.0907 169.072 94.4389C169.44 94.787 169.981 94.9611 170.696 94.9611H172.934V90.9413H170.759Z" fill="#D33B7C"/>
</g>
<defs>
<linearGradient id="paint0_linear" x1="141.194" y1="-2.39437e-06" x2="-186.346" y2="126.41" gradientUnits="userSpaceOnUse">
<stop stop-color="#284BC5"/>
<stop offset="1" stop-color="white"/>
</linearGradient>
<clipPath id="clip0">
<rect width="177" height="104" fill="white"/>
</clipPath>
</defs>
</svg>
